<svg width="512" height="512" viewBox="0 0 512 512" fill="none" xmlns="http://www.w3.org/2000/svg">
  <rect width="512" height="512" rx="128" fill="#1F2937"/>
  <path d="M256 128V85.3333m0 42.6667a42.6667 42.6667 0 100 85.3333m0-85.3333a42.6667 42.6667 0 110 85.3333m-128 170.667a42.6667 42.6667 0 100-85.3334m0 85.3334a42.6667 42.6667 0 110-85.3334m0 85.3334v42.6666m0-128V85.3333m128 128v213.334m128-42.667a42.6667 42.6667 0 100-85.3334m0 85.3334a42.6667 42.6667 0 110-85.3334m0 85.3334v42.6666m0-128V85.3333" stroke="#60A5FA" stroke-width="42.6667" stroke-linecap="round" stroke-linejoin="round"/>
</svg>